<?xml version="1.0" encoding="utf-8"?>
<!-- Generator: Adobe Illustrator 27.3.1, SVG Export Plug-In . SVG Version: 6.00 Build 0)  -->
<svg version="1.1" id="Layer_1" xmlns="http://www.w3.org/2000/svg" xmlns:xlink="http://www.w3.org/1999/xlink" x="0px" y="0px"
	 viewBox="0 0 1080 1080" style="enable-background:new 0 0 1080 1080;" xml:space="preserve">
<style type="text/css">
	.st0{fill:#FFFFFF;}
</style>
<g>
	<path class="st0" d="M1073,453.9c-23-142.4-100.1-267.2-217-351.6C739,17.8,596.2-16,453.9,7c0,0,0,0,0,0l7,43.5
		c130.7-21.1,261.9,9.9,369.3,87.4c107.4,77.5,178.2,192.2,199.3,322.9c21.1,130.7-9.9,261.9-87.4,369.3
		c-77.5,107.4-192.2,178.2-322.9,199.3c-130.7,21.1-261.9-9.9-369.3-87.4L224,977.8C341,1062.2,483.8,1096,626.1,1073
		c142.4-23,267.2-100.1,351.6-217C1062.2,739,1096,596.2,1073,453.9z"/>
</g>
</svg>
