<?xml version="1.0" encoding="utf-8"?>
<!-- Generator: Adobe Illustrator 27.3.1, SVG Export Plug-In . SVG Version: 6.00 Build 0)  -->
<svg version="1.1" id="Layer_1" xmlns="http://www.w3.org/2000/svg" xmlns:xlink="http://www.w3.org/1999/xlink" x="0px" y="0px"
	 viewBox="0 0 1080 1080" style="enable-background:new 0 0 1080 1080;" xml:space="preserve">
<style type="text/css">
	.st0{fill:#231F20;}
</style>
<g>
	<path class="st0" d="M890.7,189.3c93.7,93.7,145.2,218.2,145.2,350.7c0,132.5-51.6,257-145.2,350.7
		C797,984.3,672.5,1035.9,540,1035.9c-132.5,0-257-51.6-350.7-145.2C95.7,797,44.1,672.5,44.1,540H0c0,144.2,56.2,279.8,158.2,381.8
		c102,102,237.6,158.2,381.8,158.2s279.8-56.2,381.8-158.2c102-102,158.2-237.6,158.2-381.8s-56.2-279.8-158.2-381.8c0,0,0,0,0,0
		L890.7,189.3z"/>
</g>
</svg>
