<?xml version="1.0" encoding="utf-8"?>
<!-- Generator: Adobe Illustrator 27.3.1, SVG Export Plug-In . SVG Version: 6.00 Build 0)  -->
<svg version="1.1" id="Layer_1" xmlns="http://www.w3.org/2000/svg" xmlns:xlink="http://www.w3.org/1999/xlink" x="0px" y="0px"
	 viewBox="0 0 1080 1080" style="enable-background:new 0 0 1080 1080;" xml:space="preserve">
<style type="text/css">
	.st0{fill:#FFFFFF;}
</style>
<g>
	<path class="st0" d="M540,1080c-34.2,0-68.4-3.2-101.6-9.6l2.8-14.6c32.4,6.2,65.6,9.3,98.9,9.3c50.5,0,100.4-7.2,148.4-21.3
		l4.2,14.3C643.3,1072.6,591.9,1080,540,1080z M388.4,1058.4c-82-23.9-158.3-67.9-220.6-127.2l10.3-10.8
		c60.5,57.6,134.7,100.4,214.5,123.6L388.4,1058.4z M741.2,1041.3l-5.5-13.8c77.1-31,146.8-80.7,201.5-143.9l11.2,9.7
		C892.1,958.3,820.5,1009.4,741.2,1041.3z M132.3,894.1C76,829.3,35.5,751.1,15.3,668.1l14.5-3.5c19.6,80.8,59,156.8,113.8,219.8
		L132.3,894.1z M980.1,853l-12.1-8.6c48.4-68,80.2-147.4,91.9-229.8l14.7,2.1C1062.6,701.3,1029.9,783.1,980.1,853z M5.5,617.6
		C1.9,592.1,0,566,0,540c0-60.3,9.9-119.4,29.3-175.9l14.1,4.8c-18.9,54.9-28.5,112.4-28.5,171c0,25.3,1.8,50.7,5.4,75.5L5.5,617.6z
		 M1079.4,565.4l-14.9-0.7c0.4-8.2,0.6-16.5,0.6-24.7c0-76.2-15.9-149.6-47.4-218.3l13.5-6.2c32.3,70.7,48.7,146.2,48.7,224.5
		C1080,548.5,1079.8,557,1079.4,565.4z M61.9,322.6l-13.5-6.2c35.5-77.8,89.8-147.1,157.1-200.3l9.2,11.7
		C149.2,179.5,96.4,246.9,61.9,322.6z M994.8,277.3c-41.7-72.1-100.8-134-170.9-179.2l8.1-12.5C904,132,964.7,195.7,1007.7,269.8
		L994.8,277.3z M255.3,98.7l-8.1-12.5c72-46.5,155.1-75.5,240.4-83.7l1.4,14.8C406.2,25.3,325.3,53.4,255.3,98.7z M780.6,73.1
		C705.8,34.5,624.8,14.9,540,14.9l-1,0L539,0l1,0c43.7,0,87.3,5.2,129.3,15.6c40.9,10.1,80.6,25,118.1,44.3L780.6,73.1z"/>
</g>
</svg>
