<?xml version="1.0" encoding="utf-8"?>
<!-- Generator: Adobe Illustrator 27.3.1, SVG Export Plug-In . SVG Version: 6.00 Build 0)  -->
<svg version="1.1" id="Layer_1" xmlns="http://www.w3.org/2000/svg" xmlns:xlink="http://www.w3.org/1999/xlink" x="0px" y="0px"
	 viewBox="0 0 1080 1080" style="enable-background:new 0 0 1080 1080;" xml:space="preserve">
<style type="text/css">
	.st0{fill:#FFFFFF;}
</style>
<g>
	<g>
		<path class="st0" d="M1065.7,449c-9.8,2-19.4-4.1-21.5-13.6l0,0c-2.1-9.6,4.2-19,13.9-21l0,0c9.8-2,19.4,4.1,21.5,13.6l0,0l0,0
			l0,0c0.3,1.2,0.4,2.5,0.4,3.7l0,0C1080,439.9,1074.2,447.2,1065.7,449z"/>
	</g>
	<g>
		<path class="st0" d="M1057.9,685.6c-1.6,0-3.3-0.2-4.9-0.6c-5.3-1.3-9.8-4.5-12.6-9.1c-2.8-4.6-3.7-10-2.4-15.2
			c2.7-10.7,13.9-17.3,24.8-14.6c9.2,2.2,15.6,10.2,15.6,19.5c0,1.6-0.2,3.3-0.6,4.8l0,0C1075.5,679.5,1067.1,685.6,1057.9,685.6z
			 M1057.9,650.2c-7,0-13.5,4.7-15.2,11.6c-1,4-0.4,8.1,1.8,11.6c2.2,3.5,5.6,6,9.7,7c8.4,2,16.9-3,19-11.2l0,0
			c0.3-1.2,0.5-2.4,0.5-3.7c0-7.1-4.9-13.2-11.9-14.9C1060.4,650.4,1059.2,650.2,1057.9,650.2z"/>
	</g>
	<g>
		<path class="st0" d="M971.8,233.7c-7.9,6-19.2,4.7-25.4-3l0,0c-6.2-7.7-4.8-18.8,3.1-24.8l0,0c7.9-6,19.2-4.7,25.4,3l0,0
			c2.6,3.2,3.8,7.1,3.8,10.9l0,0C978.8,225,976.4,230.2,971.8,233.7z"/>
	</g>
	<g>
		<path class="st0" d="M949.4,894.1c-4.8,0-9.4-1.6-13.1-4.7c-4.2-3.4-6.8-8.3-7.3-13.6c-0.5-5.3,1.2-10.5,4.7-14.6
			c7.3-8.5,20.2-9.6,28.9-2.5c4.7,3.8,7.3,9.4,7.3,15.4c0,4.7-1.7,9.3-4.8,12.9l0,0c-3.5,4.1-8.5,6.6-13.9,7.1
			C950.6,894.1,950,894.1,949.4,894.1z M949.4,858.7c-4.5,0-8.9,1.9-12,5.5c-2.7,3.1-4,7.1-3.6,11.2c0.4,4.1,2.3,7.8,5.5,10.4
			c3.2,2.6,7.3,3.9,11.4,3.5c4.2-0.4,8-2.3,10.6-5.4l0,0c2.4-2.8,3.7-6.3,3.7-9.8c0-4.6-2-8.8-5.6-11.8
			C956.6,859.9,953,858.7,949.4,858.7z"/>
	</g>
	<g>
		<path class="st0" d="M791,80.3c-4.4,8.8-15.2,12.4-24.2,8.1l0,0c-9-4.3-12.7-14.9-8.3-23.7l0,0c4.4-8.8,15.2-12.4,24.2-8.1l0,0
			c6.4,3.1,10.2,9.4,10.2,15.9l0,0C792.9,75.2,792.3,77.8,791,80.3z"/>
	</g>
	<g>
		<path class="st0" d="M766,1031.3C766,1031.3,766,1031.3,766,1031.3L766,1031.3c-9.1,4-19.8,0-23.9-8.9l0,0
			c-4.1-8.9,0-19.4,9.1-23.4l0,0c9.1-4,19.8,0,23.9,8.9l0,0c1.1,2.3,1.6,4.8,1.6,7.2l0,0C776.7,1021.9,772.8,1028.3,766,1031.3z"/>
	</g>
	<g>
		<path class="st0" d="M541.7,40.1c-11.3,0-20.5-9-20.5-20.1S530.4,0,541.7,0c11.3,0,20.5,9,20.5,20.1S553,40.1,541.7,40.1z
			 M541.7,4.7c-8.6,0-15.7,6.9-15.7,15.3c0,8.5,7,15.3,15.7,15.3s15.7-6.9,15.7-15.3C557.4,11.6,550.3,4.7,541.7,4.7z"/>
	</g>
	<g>
		<path class="st0" d="M523.9,1080c-0.2,0-0.5,0-0.7,0c-11.3-0.4-20.2-9.7-19.8-20.7c0.4-11.1,9.9-19.8,21.2-19.4
			c11.1,0.4,19.8,9.2,19.8,20c0,0.2,0,0.5,0,0.7c-0.2,5.3-2.5,10.3-6.5,14C534.1,1078.1,529.2,1080,523.9,1080z M523.9,1044.6
			c-8.4,0-15.4,6.6-15.7,14.8c-0.3,8.5,6.5,15.6,15.2,15.8c4.2,0.1,8.2-1.3,11.2-4.1c3.1-2.8,4.8-6.6,5-10.7l0-0.1
			c0-0.2,0-0.3,0-0.4c0-8.3-6.7-15.1-15.2-15.3C524.3,1044.6,524.1,1044.6,523.9,1044.6z"/>
	</g>
	<g>
		<path class="st0" d="M347.9,74.7L347.9,74.7c-9.3,3.7-19.8-0.7-23.6-9.7l0,0c-3.8-9.1,0.7-19.4,9.9-23.1l0,0l0,0l0,0
			c9.3-3.7,19.8,0.7,23.6,9.7l0,0c0.9,2.2,1.4,4.4,1.4,6.7l0,0C359.2,65.3,354.9,71.9,347.9,74.7z"/>
	</g>
	<g>
		<path class="st0" d="M292.7,1019.9c-3.2,0-6.5-0.8-9.6-2.3c-10-5.2-13.8-17.4-8.5-27.1c2.6-4.7,6.9-8.2,12.1-9.8
			c5.2-1.6,10.8-1.1,15.6,1.5c6.7,3.5,10.9,10.3,10.9,17.7c0,3.2-0.8,6.5-2.4,9.4C307.2,1016,300.1,1019.9,292.7,1019.9z
			 M292.8,984.5c-1.5,0-3.1,0.2-4.6,0.7c-4,1.2-7.3,3.9-9.3,7.5c-4.1,7.5-1.1,16.8,6.5,20.7c7.6,4,17.2,1.1,21.2-6.4l0,0
			c1.2-2.2,1.8-4.7,1.8-7.2c0-5.7-3.2-10.9-8.3-13.6C297.8,985.1,295.3,984.5,292.8,984.5z"/>
	</g>
	<g>
		<path class="st0" d="M159.1,204.9c-6.7,7.3-18.1,7.9-25.6,1.4l0,0c-7.4-6.5-8.1-17.7-1.4-25l0,0c6.7-7.3,18.1-7.9,25.6-1.4l0,0
			c4,3.5,6,8.3,6,13.2l0,0C163.7,197.3,162.2,201.5,159.1,204.9z"/>
	</g>
	<g>
		<path class="st0" d="M122.7,860.9c-8.1,5.8-19.4,4-25.3-3.9l0,0c-5.9-7.9-4.1-19,3.9-24.7l0,0c8.1-5.8,19.4-4,25.3,3.9l0,0
			c2.4,3.2,3.5,6.8,3.5,10.4l0,0C130.1,852.1,127.5,857.5,122.7,860.9z"/>
	</g>
	<g>
		<path class="st0" d="M21.3,649c-9.8,1.7-19.2-4.7-21-14.3l0,0c-1.7-9.6,4.8-18.8,14.7-20.5l0,0c9.8-1.7,19.2,4.7,21,14.3l0,0
			c0.2,1.1,0.3,2.1,0.3,3.1l0,0C36.2,640,30,647.4,21.3,649z"/>
	</g>
	<g>
		<path class="st0" d="M30.1,418c-1.9,0-3.8-0.3-5.6-0.8c-10.9-3-17.2-14.1-14.1-24.8c1.5-5.2,5-9.4,9.7-12
			c4.8-2.6,10.3-3.2,15.6-1.8c8.8,2.4,14.9,10.4,14.9,19.3c0,1.9-0.3,3.7-0.8,5.5c-1.5,5.2-5,9.4-9.7,12
			C36.9,417.1,33.5,418,30.1,418z M30,382.6c-2.6,0-5.3,0.7-7.6,2c-3.7,2-6.3,5.3-7.4,9.2c-2.4,8.1,2.5,16.6,10.8,19
			c4,1.1,8.3,0.6,11.9-1.4c3.7-2,6.3-5.3,7.4-9.2l0,0c0.4-1.4,0.6-2.8,0.6-4.2c0-6.8-4.7-12.9-11.4-14.8
			C32.9,382.8,31.5,382.6,30,382.6z"/>
	</g>
</g>
</svg>
