<?xml version="1.0" encoding="utf-8"?>
<!-- Generator: Adobe Illustrator 27.3.1, SVG Export Plug-In . SVG Version: 6.00 Build 0)  -->
<svg version="1.1" id="Layer_1" xmlns="http://www.w3.org/2000/svg" xmlns:xlink="http://www.w3.org/1999/xlink" x="0px" y="0px"
	 viewBox="0 0 1080 1080" style="enable-background:new 0 0 1080 1080;" xml:space="preserve">
<style type="text/css">
	.st0{fill:#231F20;}
</style>
<g>
	<path class="st0" d="M540.2,1080.2c-2.8,0-5.6,0-8.4-0.1l0.2-14.9c23.2,0.4,46.7-0.8,69.7-3.5l1.7,14.8
		C582.6,1079,561.4,1080.2,540.2,1080.2z M478.1,1076.7c-23.8-2.7-47.5-7.1-70.6-12.9l3.6-14.4c22.5,5.7,45.5,9.9,68.6,12.5
		L478.1,1076.7z M656.6,1067.7l-3.2-14.5c22.7-5,45.2-11.5,67-19.5l5.1,14C703.1,1055.8,679.9,1062.6,656.6,1067.7z M356,1048
		c-22.4-8.1-44.5-17.9-65.7-28.9l6.9-13.2c20.6,10.8,42.1,20.2,63.9,28.1L356,1048z M775.1,1026.6l-6.5-13.4
		c20.9-10.1,41.3-21.7,60.6-34.5l8.2,12.4C817.5,1004.3,796.5,1016.3,775.1,1026.6z M243.9,991.8c-19.9-13.1-39.2-27.7-57.2-43.3
		l9.7-11.2c17.6,15.2,36.3,29.4,55.7,42.1L243.9,991.8z M880.9,959.3l-9.4-11.5c18-14.6,35.2-30.6,51.1-47.5l10.8,10.2
		C917.1,927.8,899.4,944.3,880.9,959.3z M147.7,911.2c-16.4-17.3-31.8-35.9-45.8-55.3l12.1-8.7c13.6,18.8,28.6,36.9,44.5,53.8
		L147.7,911.2z M968.4,869.5l-11.8-9.1c14.2-18.4,27.3-37.9,38.9-58l12.9,7.4C996.4,830.5,983,850.6,968.4,869.5z M72.7,810.8
		c-12-20.6-22.7-42.3-31.8-64.3l13.8-5.7c8.9,21.4,19.3,42.4,30.9,62.5L72.7,810.8z M1032.9,762l-13.6-6.1
		c9.6-21.2,17.8-43.2,24.4-65.4l14.3,4.3C1051.2,717.5,1042.7,740.2,1032.9,762z M22.8,695.8c-6.9-22.8-12.3-46.4-16-70l14.7-2.3
		c3.7,22.9,8.9,45.8,15.6,68L22.8,695.8z M1070.8,642.4l-14.6-2.8c4.4-22.7,7.2-46,8.6-69.3l14.9,0.8
		C1078.2,595,1075.3,619,1070.8,642.4z M0.9,572.3C0.3,561.6,0,550.7,0,540c0-13.1,0.5-26.4,1.4-39.5l14.8,1.1
		c-0.9,12.7-1.4,25.6-1.4,38.4c0,10.5,0.3,21,0.9,31.4L0.9,572.3z M1065.1,517.9c-1-23.3-3.5-46.6-7.5-69.4l14.7-2.6
		c4.1,23.4,6.7,47.4,7.7,71.3L1065.1,517.9z M22.6,449.6L8,447.1c4.1-23.5,9.8-47,17-69.7l14.2,4.5
		C32.1,403.9,26.6,426.8,22.6,449.6z M1046,397.5c-6.3-22.3-14.1-44.5-23.3-65.8l13.7-5.9c9.5,21.9,17.6,44.7,24,67.6L1046,397.5z
		 M57.3,332.7l-13.7-5.9c9.4-21.9,20.4-43.4,32.7-63.9l12.8,7.6C77.2,290.5,66.5,311.4,57.3,332.7z M999.5,284.8
		c-11.3-20.2-24-40-37.9-58.6l11.9-8.9c14.3,19.1,27.4,39.4,39,60.2L999.5,284.8z M118.2,227l-11.9-8.9
		c14.2-19.2,29.9-37.5,46.5-54.7l10.7,10.4C147.3,190.5,132.1,208.4,118.2,227z M928.2,185.8c-15.6-17.1-32.6-33.4-50.4-48.3
		l9.6-11.4c18.3,15.3,35.7,32.1,51.8,49.7L928.2,185.8z M201.8,138.2l-9.6-11.4c18.3-15.4,37.7-29.7,57.8-42.5l8,12.5
		C238.5,109.3,219.5,123.2,201.8,138.2z M836.2,105.9c-19.2-13.1-39.4-25-60.1-35.5l6.7-13.3c21.3,10.7,42.1,23,61.8,36.5
		L836.2,105.9z M303.5,70.9l-6.7-13.3c21.3-10.8,43.5-20.2,66.1-28l4.9,14.1C345.8,51.2,324.2,60.4,303.5,70.9z M728.1,49.2
		C706.4,40.9,684,34,661.4,28.7l3.4-14.5c23.2,5.5,46.3,12.6,68.6,21.1L728.1,49.2z M418,28.9l-3.5-14.5c23.2-5.5,47-9.5,70.8-11.9
		l1.5,14.8C463.7,19.7,440.5,23.6,418,28.9z M609.9,19.2c-22.9-3-46.4-4.6-69.6-4.6h-1.2l0-14.9h1.2c23.9,0,48,1.6,71.6,4.7
		L609.9,19.2z"/>
</g>
</svg>
